<?xml version="1.0" encoding="UTF-8"?>
<svg id="Layer_2" data-name="Layer 2" xmlns="http://www.w3.org/2000/svg" viewBox="0 0 680.31 426.91">
  <defs>
    <style>
      .cls-1 {
        fill: #786a65;
      }

      .cls-2 {
        fill: #da9aaa;
      }
    </style>
  </defs>
  <g>
    <path class="cls-1" d="M205.47,279.04c-.74-.74-1.63-1.11-2.68-1.11-1.23,0-2.3.43-3.21,1.3-.92.88-1.38,1.93-1.38,3.15,0,1.14.37,2.07,1.12,2.82s1.68,1.11,2.81,1.11c1.22,0,2.27-.44,3.15-1.31.87-.87,1.31-1.92,1.31-3.15,0-1.13-.38-2.07-1.12-2.81Z"/>
    <path class="cls-1" d="M370.66,319.12c-.05-.3-.28-.45-.72-.45-.35,0-.57.17-.66.52-.08.35-.17.66-.26.92-.52,3.32-1.48,6.74-2.88,10.28-1.4,3.54-2.97,6.49-4.72,8.84-1.74,2.36-3.4,3.54-4.97,3.54-1.14,0-1.93-.52-2.36-1.57-.44-1.05-.66-2.4-.66-4.06,0-2.01.2-4.33.59-6.95.4-2.62.81-5.37,1.25-8.25.43-2.71.89-5.46,1.37-8.25.48-2.8.72-5.42.72-7.86,0-2.88-.5-5.28-1.5-7.21-1.01-1.92-2.91-2.88-5.7-2.88-3.23,0-6.03,1.57-8.39,4.72-2.35,3.14-4.15,7.29-5.37,12.44.87-5.41,1.57-9.52,2.1-12.31.52-2.8.87-4.54,1.05-5.24.17-.53.04-.79-.4-.79-.17,0-.35.13-.52.4-1.22,1.65-2.93,2.48-5.11,2.48-.52,0-.96-.04-1.31-.13l-1.96,22.27h0c-.05.16-.09.33-.13.53-1.4,6.64-3.43,11.77-6.1,15.39-2.66,3.62-5.61,5.44-8.84,5.44-.61,0-1.09-.05-1.44-.13-4.37-.79-6.55-6.42-6.55-16.9,3.06,0,5.79-.99,8.19-2.95,2.4-1.97,4.3-4.48,5.7-7.53,1.39-3.06,2.09-6.12,2.09-9.17,0-2.27-.48-4.09-1.44-5.44-.96-1.35-2.53-2.03-4.71-2.03-3.67,0-7.08,2.4-10.22,7.2-3.06,4.78-4.81,10.4-5.25,16.84-.01.01-.01.02-.01.03-.28,1.28-.68,2.89-1.23,4.81-.65,2.32-1.42,4.48-2.29,6.49-1.4,3.4-2.84,5.79-4.32,7.14-1.49,1.35-2.88,2.03-4.19,2.03s-2.23-.9-2.75-2.69c-.53-1.79-.79-4.12-.79-7,0-3.41.28-7.32.85-11.73.57-4.41,1.16-8.62,1.77-12.64.26-1.57.52-3.21.79-4.91.26-1.71.56-3.43.91-5.18,1.75-8.82,3.19-15.72,4.33-20.7,1.13-4.97,1.87-8.03,2.22-9.17.18-.52,0-.78-.52-.78-.09,0-.22.09-.39.26-1.05,2.01-2.54,3.01-4.46,3.01-.35,0-.68-.02-.98-.06-.31-.05-.64-.11-.98-.2l-6.42,38.91c0-3.23-.66-5.9-1.97-7.99-1.39-2.36-3.58-3.54-6.55-3.54-4.71,0-8.6,2.97-11.66,8.91-2.25,4.44-3.57,9.24-3.95,14.4v.02c-.27,1.38-.72,3.18-1.35,5.42-.65,2.32-1.42,4.48-2.29,6.49-1.4,3.4-2.84,5.79-4.33,7.14-1.48,1.35-2.88,2.03-4.19,2.03s-2.22-.9-2.75-2.69c-.52-1.79-.78-4.12-.78-7,0-3.41.28-7.32.85-11.73.56-4.41,1.15-8.62,1.77-12.64.26-1.57.52-3.21.78-4.91.26-1.71.57-3.43.92-5.18,1.74-8.82,3.19-15.72,4.32-20.7,1.14-4.97,1.88-8.03,2.23-9.17.17-.52,0-.78-.53-.78-.08,0-.21.09-.39.26-1.05,2.01-2.53,3.01-4.45,3.01-.35,0-.68-.02-.99-.06-.3-.05-.63-.11-.98-.2l-6.42,38.91c0-3.23-.65-5.9-1.96-7.99-1.4-2.36-3.58-3.54-6.55-3.54-4.72,0-8.6,2.97-11.66,8.91-2.25,4.42-3.56,9.2-3.94,14.33-.61,2.95-1.44,6.06-2.48,9.31-1.05,3.28-2.4,6.05-4.06,8.32-1.66,2.27-3.8,3.41-6.42,3.41-1.92,0-3.27-1.05-4.06-3.15-.79-2.09-1.18-4.62-1.18-7.59,0-2.1.15-4.35.46-6.75.3-2.4.68-4.69,1.11-6.88,1.31-5.94,2.36-10.76,3.15-14.47.78-3.71,1.35-6.27,1.7-7.67.09-.61-.04-.91-.39-.91s-.61.22-.79.65c-1.05,2.1-2.44,3.14-4.19,3.14-.52,0-1.18-.13-1.97-.39-1.31,7.34-2.48,14.15-3.53,20.44-.53,3.14-.79,6.24-.79,9.3,0,.67.02,1.32.05,1.95-.01.05-.03.1-.05.15-.44,1.83-1.2,3.75-2.29,5.76-1.09,2.01-2.29,3.71-3.6,5.11-1.31,1.4-2.62,2.09-3.93,2.09-2.71,0-4.06-4.49-4.06-13.49,0-3.06.19-6.75.59-11.07.39-4.32.96-8.95,1.7-13.88.74-4.94,1.64-9.76,2.68-14.48,1.05-4.72,2.27-9.04,3.67-12.97,1.4-3.93,2.93-7.05,4.59-9.36,1.66-2.32,3.45-3.48,5.37-3.48h.39c4.46,0,6.68,2.58,6.68,7.73,0,1.4-.22,2.88-.65,4.46-.35,1.04-.22,1.57.39,1.57.35,0,.7-.4,1.05-1.18.52-2.1.78-3.76.78-4.98,0-2.62-.74-4.85-2.22-6.68-1.49-1.83-3.5-2.75-6.03-2.75-1.83,0-3.97.87-6.42,2.62-3.75,2.71-6.81,7.45-9.17,14.21-2.36,6.77-4.58,14.83-6.68,24.17h-29.6c.08-.87.15-1.66.19-2.36.05-.69.07-1.31.07-1.83.08-10.39,1.79-18.3,5.11-23.71,3.93,1.49,7.07,2.23,9.43,2.23s4.06-.51,5.37-1.51,1.96-2.34,1.96-4-.7-2.94-2.09-3.86c-1.4-.92-2.93-1.38-4.59-1.38-3.66,0-7.38,2.01-11.13,6.03-7.69-3.49-14.59-6.42-20.7-8.78-6.11-2.36-12.18-3.53-18.21-3.53-4.8,0-9.06,1.09-12.77,3.27-3.71,2.19-6.6,5.15-8.65,8.91-2.05,3.75-3.08,8.08-3.08,12.97,0,4.63.96,8.82,2.89,12.57-7.43,4.81-11.14,12.19-11.14,22.14,0,5.59,1.31,10.57,3.93,14.94,2.62,4.37,6.16,7.81,10.61,10.35,4.46,2.53,9.48,3.8,15.07,3.8,8.38,0,15.21-1.82,20.5-5.44,5.28-3.62,9.3-8.76,12.05-15.39,2.75-6.64,4.43-14.46,5.04-23.45h29.48c-1.83,9.25-2.75,17.07-2.75,23.45,0,5.32.72,9.43,2.16,12.31s3.69,4.32,6.75,4.32,5.76-1.79,8.38-5.37c1.36-1.95,2.5-4.02,3.42-6.21.36,1.85.9,3.55,1.62,5.1,1.44,3.1,4.04,4.65,7.8,4.65s6.79-1.77,9.1-5.31c1.61-2.47,3.07-6.01,4.37-10.63.3,4.36,1.23,8.01,2.77,10.96,1.92,3.67,4.5,5.5,7.73,5.5,5.33,0,9.21-5.45,11.66-16.37.17,5.15.89,9.15,2.16,11.98,1.26,2.84,3.34,4.26,6.22,4.26,1.75,0,3.45-.78,5.11-2.36,1.66-1.57,3.23-4.1,4.72-7.59.7-1.75,1.37-3.69,2.03-5.83.09-.31.19-.61.28-.93.27,4.52,1.2,8.3,2.79,11.34,1.92,3.67,4.5,5.5,7.73,5.5,5.33,0,9.22-5.45,11.66-16.37.18,5.15.9,9.15,2.16,11.98,1.27,2.84,3.34,4.26,6.23,4.26,1.74,0,3.45-.78,5.11-2.36,1.65-1.57,3.23-4.1,4.71-7.59.7-1.75,1.38-3.69,2.03-5.83l.18-.57c.17,2.07.57,4.07,1.2,6,.87,2.71,2.2,4.96,3.99,6.75s4.04,2.86,6.75,3.21c6.98.79,12.33-4.17,16.06-14.89l-1.52,17.25c-.09.35-.09.61,0,.78.17.18.39.18.65,0,.35-.17.57-.43.66-.78.61-1.93,2.05-2.75,4.32-2.49.26-3.23.59-7.01.98-11.33.4-4.33.9-8.06,1.51-11.2.26-1.58.76-3.61,1.51-6.1.74-2.48,1.64-4.95,2.68-7.4,1.05-2.44,2.21-4.49,3.47-6.15,1.27-1.66,2.6-2.49,4-2.49,1.48,0,2.51.52,3.08,1.57s.85,2.49.85,4.32c0,2.27-.31,5-.92,8.19s-1.26,6.53-1.96,10.02c-.79,4.54-1.18,8.52-1.18,11.92s.57,6.03,1.7,7.86c1.14,1.84,3.19,2.75,6.16,2.75,1.92,0,3.71-.76,5.37-2.29,1.66-1.53,3.16-3.54,4.52-6.03,1.35-2.48,2.47-5.15,3.34-7.99.87-2.83,1.48-5.52,1.83-8.05.09-.35.11-.68.07-.99ZM308.24,314.8c.61-2.66,1.42-5.22,2.42-7.66,1.01-2.45,2.14-4.43,3.41-5.96,1.26-1.53,2.55-2.29,3.86-2.29,2.27,0,3.41,1.74,3.41,5.24,0,2.97-.68,5.85-2.03,8.64-1.36,2.8-3.1,5.09-5.24,6.88s-4.39,2.68-6.75,2.68c0-2.35.31-4.86.92-7.53ZM156.61,269.41c1.44-.87,2.99-1.31,4.65-1.31,1.57,0,2.82.31,3.74.92.91.61,1.37,1.4,1.37,2.36,0,1.13-.48,2.05-1.44,2.75s-2.27,1.04-3.93,1.04c-2.45,0-5.2-.78-8.25-2.35,1.13-1.4,2.42-2.54,3.86-3.41ZM143.05,286.11c-1.22,4.94-2.18,10.11-2.88,15.53-.7,6.2-1.72,11.98-3.08,17.35-1.35,5.37-3.23,10.09-5.63,14.15-2.4,4.06-5.53,7.25-9.37,9.56-3.84,2.32-8.64,3.48-14.41,3.48-4.71,0-8.89-1.14-12.51-3.41s-6.48-5.31-8.58-9.1c-2.09-3.8-3.14-8.1-3.14-12.91,0-9.17,2.57-15.98,7.73-20.43,3.31,5.15,8.25,7.73,14.8,7.73,2.79,0,5.63-.62,8.51-1.84.44.96.79,2.01,1.05,3.14.26,1.14.4,2.41.4,3.8,0,3.93-1.07,7.34-3.21,10.22-2.15,2.88-4.92,4.33-8.32,4.33-1.05,0-1.57.35-1.57,1.04s.34,1.05,1.04,1.05c4.54,0,8.1-1.72,10.68-5.17s3.86-7.49,3.86-12.12c0-2.45-.61-4.98-1.83-7.6,4.45-3.06,6.68-7.38,6.68-12.97,0-1.13-.22-1.7-.65-1.7-.7,0-1.05.57-1.05,1.7,0,5.07-1.88,8.91-5.63,11.53-3.32-5.94-8.74-8.91-16.25-8.91-2.88,0-5.41.57-7.6,1.71-1.13-2.63-1.7-5.68-1.7-9.17,0-4.63.98-8.67,2.95-12.12,1.96-3.45,4.69-6.16,8.19-8.12,3.49-1.97,7.51-2.95,12.05-2.95,5.06,0,10.3.83,15.72,2.49,5.41,1.66,11.92,4.1,19.52,7.33-2.62,3.32-4.55,7.45-5.77,12.38ZM93.27,298.75c1.66-1.13,3.54-1.7,5.64-1.7,7.07,0,12,2.45,14.8,7.34-2.27,1.13-4.94,1.7-7.99,1.7-5.5,0-9.65-2.44-12.45-7.34ZM238.68,316.24c-.18,1.18-.35,2.38-.52,3.61-.53,3.66-1.36,7.11-2.49,10.34-1.14,3.24-2.38,5.88-3.74,7.93-1.35,2.05-2.73,3.17-4.12,3.34-1.31.26-2.38-.39-3.21-1.96-.83-1.58-1.47-3.63-1.9-6.16-.44-2.53-.66-5.02-.66-7.47,0-2.1.24-4.69.72-7.79s1.18-6.14,2.1-9.11c.92-2.97,2.01-5.45,3.27-7.46,1.27-2.01,2.73-3.02,4.39-3.02,2.01,0,3.58,1.38,4.72,4.13,1.13,2.75,1.7,6.09,1.7,10.02,0,1.22-.09,2.42-.26,3.6ZM281.38,316.24c-.17,1.18-.34,2.38-.52,3.61-.52,3.66-1.35,7.11-2.49,10.34-1.13,3.24-2.38,5.88-3.73,7.93-1.36,2.05-2.73,3.17-4.13,3.34-1.31.26-2.38-.39-3.21-1.96-.83-1.58-1.46-3.63-1.9-6.16-.44-2.53-.65-5.02-.65-7.47,0-2.1.24-4.69.72-7.79.48-3.1,1.18-6.14,2.09-9.11.92-2.97,2.01-5.45,3.28-7.46,1.26-2.01,2.73-3.02,4.39-3.02,2.01,0,3.58,1.38,4.71,4.13,1.14,2.75,1.71,6.09,1.71,10.02,0,1.22-.09,2.42-.27,3.6Z"/>
    <path class="cls-1" d="M454.04,354.56c-4.37,0-8.56-1-12.58-3.01-4.02-2.01-7.42-4.11-10.22-6.29-4.28,1.57-9,2.36-14.15,2.36-7.86,0-14.54-1.81-20.04-5.44-5.5-3.62-9.69-8.54-12.58-14.74-2.88-6.2-4.32-13.19-4.32-20.96,0-11,2.53-20.7,7.6-29.08-5.59-4.63-8.38-9.52-8.38-14.67,0-4.02,1.35-7.09,4.06-9.24,2.71-2.14,6.11-3.21,10.22-3.21,4.54,0,8.08,1.27,10.61,3.8.44.44.65.79.65,1.05,0,.18-.13.26-.39.26h-.52c-1.57-1.22-3.21-2.16-4.91-2.82s-3.47-.98-5.31-.98c-3.49,0-6.29.94-8.38,2.82-2.1,1.88-3.19,4.56-3.28,8.06,0,4.72,2.27,9.04,6.81,12.97,8.21-12.14,20.22-18.21,36.02-18.21,5.5,0,10.13,1,13.89,3.01,4.28,2.71,6.42,6.6,6.42,11.66,8.12,6.81,12.18,16.38,12.18,28.69,0,10.57-2.14,19.71-6.42,27.44-4.28,7.73-10.31,13.25-18.08,16.57,2.01,1.66,4.72,3.45,8.12,5.37,3.41,1.92,7.64,2.88,12.71,2.88,2.27,0,4.54-.46,6.81-1.38,2.27-.92,4.28-2.38,6.03-4.39.26,0,.46.15.59.46.13.31.2.54.2.72-1.57,2.1-3.56,3.67-5.96,4.72-2.4,1.05-4.87,1.57-7.4,1.57ZM430.46,342.51c4.37-2.27,8.06-5.57,11.07-9.89,3.01-4.32,5.33-9.28,6.94-14.87,1.62-5.59,2.42-11.4,2.42-17.42,0-10.13-2.4-18.25-7.21-24.37-2.1,4.19-5.42,7.25-9.96,9.17-4.54,1.92-9.52,2.88-14.93,2.88-4.28,0-8.76-.57-13.43-1.7-4.67-1.13-8.71-2.79-12.12-4.98-1.75,3.49-3.06,7.14-3.93,10.94-.87,3.8-1.35,7.75-1.44,11.86-.09,4.02.24,7.95.98,11.79.74,3.84,1.85,7.42,3.34,10.74,1.75-1.66,4.41-2.49,7.99-2.49,3.06,0,5.92.59,8.58,1.77,2.66,1.18,5.68,3.1,9.04,5.76,3.36,2.67,7.58,6.27,12.64,10.81ZM417.75,345.52c4.02,0,7.73-.79,11.14-2.36-6.38-5.41-11.64-9.54-15.79-12.38-4.15-2.84-8.01-4.26-11.59-4.26-1.57,0-3.01.39-4.32,1.18-1.31.79-2.32,1.79-3.01,3.01,2.53,4.37,5.79,7.93,9.76,10.68,3.97,2.75,8.58,4.13,13.82,4.13ZM418.02,285.65c3.58,0,7.07-.41,10.48-1.24,3.41-.83,6.33-2.12,8.78-3.86,2.44-1.75,4.06-3.97,4.85-6.68-3.41-3.67-7.25-5.5-11.53-5.5-2.1,0-3.89.35-5.37,1.05-1.49.7-2.88,1.62-4.19,2.75-.44,0-.66-.31-.66-.92,0-1.22.63-2.21,1.9-2.95,1.27-.74,2.71-1.29,4.32-1.64,1.62-.35,2.99-.52,4.13-.52,1.92,0,3.84.24,5.76.72,1.92.48,3.84,1.46,5.76,2.95-1.4-7.34-7.21-11-17.42-11-6.2,0-12.23,2.01-18.08,6.03-5.24,3.76-9.39,8.56-12.44,14.41,3.58,1.92,7.38,3.47,11.4,4.65,4.02,1.18,8.12,1.77,12.31,1.77Z"/>
    <path class="cls-1" d="M599.64,319.12c-.04-.3-.28-.45-.72-.45-.35,0-.56.17-.65.52-.09.35-.18.66-.26.92-.53,3.32-1.49,6.74-2.89,10.28-1.39,3.54-2.96,6.49-4.71,8.84-1.75,2.36-3.41,3.54-4.98,3.54-1.14,0-1.92-.52-2.36-1.57s-.65-2.4-.65-4.06c0-2.01.19-4.33.59-6.95.39-2.62.8-5.37,1.24-8.25.44-2.71.9-5.46,1.38-8.25.48-2.8.72-5.42.72-7.86,0-2.88-.51-5.28-1.51-7.21-1-1.92-2.9-2.88-5.7-2.88-3.23,0-6.02,1.57-8.38,4.72-2.36,3.14-4.15,7.29-5.37,12.44.87-5.41,1.57-9.52,2.09-12.31.53-2.8.88-4.54,1.05-5.24.18-.53.05-.79-.39-.79-.18,0-.35.13-.52.4-1.23,1.65-2.93,2.48-5.11,2.48-.53,0-.97-.04-1.31-.13l-1.96,22.25c-.05.16-.1.34-.14.55-1.4,6.64-3.43,11.77-6.09,15.39-2.67,3.62-5.61,5.44-8.84,5.44-.62,0-1.1-.05-1.44-.13-4.37-.79-6.55-6.42-6.55-16.9,3.05,0,5.78-.99,8.18-2.95,2.4-1.97,4.3-4.48,5.7-7.53,1.4-3.06,2.1-6.12,2.1-9.17,0-2.27-.48-4.09-1.44-5.44-.97-1.35-2.54-2.03-4.72-2.03-3.67,0-7.07,2.4-10.22,7.2-3.05,4.76-4.8,10.34-5.25,16.75-1.38,6.34-3.37,11.26-5.95,14.76-2.66,3.62-5.61,5.44-8.84,5.44-.61,0-1.09-.05-1.44-.13-4.37-.79-6.55-6.42-6.55-16.9,3.05,0,5.78-.99,8.19-2.95,2.4-1.97,4.3-4.48,5.69-7.53,1.4-3.06,2.1-6.12,2.1-9.17,0-2.27-.48-4.09-1.44-5.44-.96-1.35-2.53-2.03-4.72-2.03-3.66,0-7.07,2.4-10.21,7.2-3.1,4.83-4.86,10.51-5.28,17.03-.42,2.35-1,4.82-1.73,7.41-.83,2.92-1.77,5.48-2.82,7.66-1.57,3.32-3.36,4.98-5.37,4.98-1.49,0-2.42-.92-2.82-2.75-.39-1.84-.59-3.76-.59-5.77,0-1.57.07-3.25.2-5.04.13-1.79.35-4.04.66-6.75.3-2.7.74-6.2,1.31-10.48.56-4.28,1.28-9.69,2.16-16.24.08-.7-.05-1.05-.4-1.05-.26,0-.48.22-.65.65-.79,1.93-2.71,2.8-5.77,2.63,0,1.13-.11,3.34-.32,6.61-.22,3.28-.77,8.54-1.64,15.79-.61,6.2-2.01,11.65-4.19,16.37-1.14,2.27-2.14,3.85-3.02,4.72-.87.87-1.92,1.31-3.14,1.31-1.49,0-2.51-1.36-3.08-4.06-.57-2.71-.85-6.64-.85-11.79,0-1.75.11-3.91.33-6.49.22-2.57.48-5.3.78-8.19.31-2.88.66-5.63,1.05-8.25.4-2.62.77-4.76,1.12-6.42.08-.35.13-.7.13-1.05,0-.26-.09-.39-.26-.39-.35,0-.66.31-.92.92-.79,1.92-2.67,2.79-5.63,2.62-.18.87-.4,2.53-.66,4.98-.26,2.44-.5,5.15-.72,8.12-.22,2.97-.42,5.74-.59,8.32-.18,2.57-.26,4.43-.26,5.56,0,11.97,3.1,17.95,9.3,17.95,4.02,0,7.29-3.75,9.82-11.26,0,1.66.27,3.34.79,5.04.52,1.7,1.35,3.14,2.49,4.32,1.13,1.18,2.62,1.77,4.45,1.77,3.06,0,5.59-1.85,7.6-5.57,1.26-2.33,2.39-5.46,3.38-9.37.2,1.66.56,3.28,1.07,4.85.88,2.71,2.21,4.96,4,6.75s4.04,2.86,6.75,3.21c7.24.82,12.73-4.55,16.46-16.13.17,2.13.58,4.19,1.22,6.17.87,2.71,2.21,4.96,4,6.75s4.04,2.86,6.74,3.21c6.98.79,12.34-4.18,16.06-14.91l-1.52,17.27c-.08.35-.08.61,0,.78.18.18.4.18.66,0,.35-.17.57-.43.65-.78.61-1.93,2.06-2.75,4.33-2.49.26-3.23.59-7.01.98-11.33.39-4.33.89-8.06,1.51-11.2.26-1.58.76-3.61,1.5-6.1.74-2.48,1.64-4.95,2.69-7.4,1.05-2.44,2.2-4.49,3.47-6.15,1.26-1.66,2.6-2.49,4-2.49,1.48,0,2.5.52,3.07,1.57s.85,2.49.85,4.32c0,2.27-.3,5-.91,8.19s-1.27,6.53-1.97,10.02c-.78,4.54-1.18,8.52-1.18,11.92s.57,6.03,1.71,7.86c1.13,1.84,3.18,2.75,6.15,2.75,1.92,0,3.72-.76,5.37-2.29,1.66-1.53,3.17-3.54,4.52-6.03,1.36-2.48,2.47-5.15,3.35-7.99.87-2.83,1.48-5.52,1.83-8.05.09-.35.11-.68.06-.99ZM537.22,314.8c.61-2.66,1.42-5.22,2.43-7.66,1-2.45,2.14-4.43,3.4-5.96,1.27-1.53,2.56-2.29,3.87-2.29,2.27,0,3.4,1.74,3.4,5.24,0,2.97-.67,5.85-2.03,8.64-1.35,2.8-3.1,5.09-5.24,6.88s-4.39,2.68-6.74,2.68c0-2.35.3-4.86.91-7.53ZM508.8,314.8c.61-2.66,1.41-5.22,2.42-7.66,1-2.45,2.14-4.43,3.41-5.96,1.26-1.53,2.55-2.29,3.86-2.29,2.27,0,3.41,1.74,3.41,5.24,0,2.97-.68,5.85-2.03,8.64-1.36,2.8-3.1,5.09-5.24,6.88s-4.39,2.68-6.75,2.68c0-2.35.3-4.86.92-7.53Z"/>
  </g>
  <path class="cls-2" d="M570.21,152.13l-.42-.27c-.07.1-7.22,10.31-24.95,20.32-15.74,8.89-43.17,19.38-85.41,19.96-9-3.93-18.01-8.41-26.73-13.2,1.12-.16,2.23-.31,3.38-.48,73.8-10.77,108.92-19.52,134.03-33.39l-.23-.44c-24.04,11.31-86.5,22.32-143.8,30.6-5.1-2.94-10.07-5.97-14.84-9.04-24.17-15.54-43.11-32.57-49.98-40.09-10.94-11.98-14.8-22.31-17.89-31.73v-9.45c.62-.62,4.64-4.88,4.64-11.11s-6.73-11.31-7.68-11.99l-.16-.12-.16.12c-.95.68-7.68,5.69-7.68,11.99s4.02,10.49,4.64,11.11v9.45c-3.09,9.42-6.95,19.75-17.89,31.73-6.87,7.52-25.82,24.55-49.98,40.09-4.77,3.07-9.74,6.1-14.84,9.04-57.3-8.27-119.76-19.29-143.8-30.6l-.23.44c25.12,13.87,60.23,22.63,134.03,33.39,1.15.16,2.27.32,3.38.48-8.72,4.79-17.73,9.26-26.73,13.2-42.24-.58-69.66-11.07-85.41-19.96-17.73-10.02-24.88-20.22-24.95-20.32l-.42.27c20.51,33.99,68.83,42.38,101.19,43.99-13.31,5.23-26.36,9.07-38.17,10.77l-1.94.43,1.98.07c15.4-.06,31.93-4.36,48.24-10.98,11.68,0,15.23-.18,19.08-.4,16.19-1.33,31.48-5.29,45.44-11.76,11.64,1.55,24.33,3.2,38.79,5.05,3.92.36,8.11,1.24,8.08,1.96-.02.53-2.32,1.09-6.83,1.65-.48.06-.86.11-1.07.14-.31.02-31.42,2.54-70.97,10.35-36.51,7.21-87.87,20.53-125.25,43.07l.24.44c.25-.12,25.8-12.16,64.45-24.05,35.65-10.96,90.06-24.03,146.81-24.04,56.76.01,111.16,13.08,146.81,24.04,38.65,11.89,64.2,23.93,64.45,24.05l.24-.44c-37.38-22.54-88.75-35.86-125.25-43.07-39.55-7.81-70.66-10.32-70.97-10.35-.21-.03-.59-.08-1.07-.14-4.52-.56-6.82-1.11-6.83-1.65-.02-.72,4.16-1.59,8.08-1.96,14.46-1.84,27.14-3.49,38.79-5.05,13.96,6.47,29.24,10.42,45.44,11.76,3.85.22,7.39.4,19.08.4,16.31,6.61,32.84,10.92,48.24,10.98l1.98-.07-1.94-.43c-11.81-1.7-24.86-5.55-38.17-10.77,32.36-1.61,80.67-10,101.19-43.99ZM231.33,192.11c7.94-3.67,15.76-7.81,23.3-12.18,8.39,1.19,15.7,2.22,21.77,3.04-14.23,5.65-29.35,8.7-45.07,9.14ZM284.5,179.42c-7.63-1.02-15.52-2.1-23.55-3.24,33.41-20.31,60.11-44.09,65.12-49.95,2.18,5.65,5.85,10.99,6.5,11.91-10.7,16.7-28.21,31.74-48.07,41.28ZM344.98,185.73c-1.6.18-3.21.27-4.82.27-1.61,0-3.22-.09-4.82-.27-7.49-.85-22.84-2.65-42.11-5.16,31.97-17.43,45.27-42.67,45.39-42.91l.06-.13-.08-.12c-3.91-5.55-6.09-8.8-8.99-16.08,5.65-9.7,9.47-19.33,10.56-22.18,1.09,2.85,4.92,12.48,10.56,22.18-2.9,7.27-5.09,10.53-8.99,16.08l-.08.12.06.13c.12.25,13.42,25.49,45.39,42.91-19.27,2.51-34.63,4.31-42.11,5.16ZM347.74,138.14c.65-.92,4.31-6.27,6.5-11.91,5.01,5.86,31.71,29.64,65.12,49.95-8.03,1.14-15.92,2.22-23.55,3.24-19.86-9.54-37.37-24.57-48.07-41.28ZM403.92,182.97c6.07-.82,13.38-1.85,21.77-3.04,7.54,4.37,15.36,8.5,23.3,12.18-15.72-.43-30.84-3.48-45.07-9.14Z"/>
</svg>